<svg width="34" height="34" viewBox="0 0 34 34" fill="none" xmlns="http://www.w3.org/2000/svg">
<path d="M25.1428 11.1748H13.9682C12.4253 11.1748 11.1746 12.4256 11.1746 13.9685V25.1431C11.1746 26.6859 12.4253 27.9367 13.9682 27.9367H25.1428C26.6857 27.9367 27.9365 26.6859 27.9365 25.1431V13.9685C27.9365 12.4256 26.6857 11.1748 25.1428 11.1748Z" stroke="#0081FF" stroke-width="2" stroke-linecap="round" stroke-linejoin="round"/>
<path d="M22.3493 11.1745V8.38081C22.3493 7.63989 22.055 6.92931 21.5311 6.4054C21.0072 5.88149 20.2966 5.58716 19.5557 5.58716H8.38105C7.64013 5.58716 6.92956 5.88149 6.40564 6.4054C5.88173 6.92931 5.5874 7.63989 5.5874 8.38081V19.5554C5.5874 20.2963 5.88173 21.0069 6.40564 21.5308C6.92956 22.0547 7.64013 22.3491 8.38105 22.3491H11.1747" stroke="#0081FF" stroke-width="2" stroke-linecap="round" stroke-linejoin="round"/>
</svg>
