<svg width="38" height="38" viewBox="0 0 38 38" fill="none" xmlns="http://www.w3.org/2000/svg">
<path d="M18.9999 11.0833C20.7488 11.0833 22.1666 9.66557 22.1666 7.91667C22.1666 6.16776 20.7488 4.75 18.9999 4.75C17.251 4.75 15.8333 6.16776 15.8333 7.91667C15.8333 9.66557 17.251 11.0833 18.9999 11.0833Z" stroke="#868383" stroke-width="2" stroke-linecap="round" stroke-linejoin="round"/>
<path d="M31.6667 19.7915V27.3123C31.6771 27.4883 31.6473 27.6642 31.5796 27.8269C31.4739 28.0816 31.2776 28.2881 31.0286 28.4064L22.3804 32.4914C21.3235 32.9908 20.169 33.2498 19 33.2498C17.831 33.2498 16.6766 32.9908 15.6196 32.4914L6.97144 28.4064C6.76735 28.3097 6.5974 28.1533 6.48404 27.958C6.37069 27.7627 6.31925 27.5375 6.33652 27.3123L6.33336 19.7915" stroke="#868383" stroke-width="2" stroke-linecap="round" stroke-linejoin="round"/>
<path d="M7.01579 19.3421L15.9363 15.6498C17.8983 14.8387 20.1018 14.8387 22.0638 15.6498L30.9843 19.3421C31.1819 19.4229 31.3516 19.5596 31.4726 19.7355C31.5936 19.9114 31.6605 20.1188 31.6652 20.3322C31.67 20.5457 31.6122 20.7558 31.4991 20.9369C31.386 21.1179 31.2225 21.262 31.0286 21.3514L22.3805 25.3778C21.3215 25.8701 20.1678 26.1252 19 26.1252C17.8322 26.1252 16.6786 25.8701 15.6196 25.3778L6.97146 21.3514C6.77653 21.2627 6.61191 21.1188 6.49799 20.9375C6.38407 20.7562 6.32587 20.5454 6.33059 20.3314C6.33531 20.1173 6.40275 19.9093 6.52455 19.7332C6.64635 19.557 6.81715 19.4205 7.01579 19.3406V19.3421Z" stroke="#868383" stroke-width="2" stroke-linecap="round" stroke-linejoin="round"/>
<path d="M19 11.0835V20.5835" stroke="#868383" stroke-width="2" stroke-linecap="round" stroke-linejoin="round"/>
</svg>
