<svg width="38" height="38" viewBox="0 0 38 38" fill="none" xmlns="http://www.w3.org/2000/svg">
<path d="M30.0834 13.7909L21.6394 7.22321C20.8984 6.64673 19.9864 6.33374 19.0475 6.33374C18.1087 6.33374 17.1966 6.64673 16.4556 7.22321L8.01011 13.7909C7.50256 14.1856 7.09192 14.691 6.80956 15.2687C6.52719 15.8463 6.38056 16.4808 6.38086 17.1238V28.5238C6.38086 29.3636 6.71449 30.1691 7.30835 30.763C7.90222 31.3568 8.70767 31.6905 9.54753 31.6905H28.5475C29.3874 31.6905 30.1928 31.3568 30.7867 30.763C31.3806 30.1691 31.7142 29.3636 31.7142 28.5238V17.1238C31.7142 15.8207 31.1125 14.5905 30.0834 13.7909Z" stroke="#868383" stroke-width="2" stroke-linecap="round" stroke-linejoin="round"/>
<path d="M25.3332 23.75C21.834 25.8606 16.1625 25.8606 12.6665 23.75" stroke="#868383" stroke-width="2" stroke-linecap="round" stroke-linejoin="round"/>
</svg>
