<svg width="38" height="38" viewBox="0 0 38 38" fill="none" xmlns="http://www.w3.org/2000/svg">
<path d="M20.2872 26.5907L27.018 28.6094M9.39075 10.9822L11.4095 17.7098L9.39075 10.9822Z" stroke="white" stroke-width="2" stroke-linecap="round" stroke-linejoin="round"/>
<path d="M18.498 19.502L27.6165 10.3835" stroke="white" stroke-width="2" stroke-linecap="round" stroke-linejoin="round"/>
<path d="M8.70837 11.0833C10.0201 11.0833 11.0834 10.0199 11.0834 8.70825C11.0834 7.39658 10.0201 6.33325 8.70837 6.33325C7.3967 6.33325 6.33337 7.39658 6.33337 8.70825C6.33337 10.0199 7.3967 11.0833 8.70837 11.0833Z" stroke="white" stroke-width="2" stroke-linecap="round" stroke-linejoin="round"/>
<path d="M29.2916 11.0833C30.6033 11.0833 31.6666 10.0199 31.6666 8.70825C31.6666 7.39658 30.6033 6.33325 29.2916 6.33325C27.9799 6.33325 26.9166 7.39658 26.9166 8.70825C26.9166 10.0199 27.9799 11.0833 29.2916 11.0833Z" stroke="white" stroke-width="2" stroke-linecap="round" stroke-linejoin="round"/>
<path d="M29.2916 31.6665C30.6033 31.6665 31.6666 30.6032 31.6666 29.2915C31.6666 27.9798 30.6033 26.9165 29.2916 26.9165C27.9799 26.9165 26.9166 27.9798 26.9166 29.2915C26.9166 30.6032 27.9799 31.6665 29.2916 31.6665Z" stroke="white" stroke-width="2" stroke-linecap="round" stroke-linejoin="round"/>
<path d="M13.4584 31.6665C17.3934 31.6665 20.5834 28.4765 20.5834 24.5415C20.5834 20.6065 17.3934 17.4165 13.4584 17.4165C9.52334 17.4165 6.33337 20.6065 6.33337 24.5415C6.33337 28.4765 9.52334 31.6665 13.4584 31.6665Z" stroke="white" stroke-width="2" stroke-linecap="round" stroke-linejoin="round"/>
</svg>
