<svg width="34" height="34" viewBox="0 0 34 34" fill="none" xmlns="http://www.w3.org/2000/svg">
<path d="M8.38091 20.9525C10.6952 20.9525 12.5714 19.0763 12.5714 16.762C12.5714 14.4477 10.6952 12.5715 8.38091 12.5715C6.06657 12.5715 4.19043 14.4477 4.19043 16.762C4.19043 19.0763 6.06657 20.9525 8.38091 20.9525Z" stroke="#0081FF" stroke-width="2" stroke-linecap="round" stroke-linejoin="round"/>
<path d="M25.1429 12.5714C27.4572 12.5714 29.3333 10.6952 29.3333 8.38091C29.3333 6.06657 27.4572 4.19043 25.1429 4.19043C22.8285 4.19043 20.9524 6.06657 20.9524 8.38091C20.9524 10.6952 22.8285 12.5714 25.1429 12.5714Z" stroke="#0081FF" stroke-width="2" stroke-linecap="round" stroke-linejoin="round"/>
<path d="M25.1429 29.3333C27.4572 29.3333 29.3333 27.4572 29.3333 25.1429C29.3333 22.8285 27.4572 20.9524 25.1429 20.9524C22.8285 20.9524 20.9524 22.8285 20.9524 25.1429C20.9524 27.4572 22.8285 29.3333 25.1429 29.3333Z" stroke="#0081FF" stroke-width="2" stroke-linecap="round" stroke-linejoin="round"/>
<path d="M12.1523 14.946L21.3714 10.1968" stroke="#0081FF" stroke-width="2" stroke-linecap="round" stroke-linejoin="round"/>
<path d="M12.1523 18.5779L21.3714 23.3271" stroke="#0081FF" stroke-width="2" stroke-linecap="round" stroke-linejoin="round"/>
</svg>
